<?xml version="1.0" encoding="UTF-8" standalone="no"?>
<!-- Created with Inkscape (http://www.inkscape.org/) -->

<svg
   xmlns:dc="http://purl.org/dc/elements/1.1/"
   xmlns:cc="http://creativecommons.org/ns#"
   xmlns:rdf="http://www.w3.org/1999/02/22-rdf-syntax-ns#"
   xmlns:svg="http://www.w3.org/2000/svg"
   xmlns="http://www.w3.org/2000/svg"
   xmlns:sodipodi="http://sodipodi.sourceforge.net/DTD/sodipodi-0.dtd"
   xmlns:inkscape="http://www.inkscape.org/namespaces/inkscape"
   width="306.57767mm"
   height="253.4928mm"
   viewBox="0 0 306.57767 253.4928"
   version="1.1"
   id="svg8"
   inkscape:version="0.92.4 (5da689c313, 2019-01-14)"
   sodipodi:docname="oups.svg">
  <defs
     id="defs2">
    <clipPath
       id="clipPath4536"
       clipPathUnits="userSpaceOnUse">
      <path
         inkscape:connector-curvature="0"
         id="path4534"
         d="M 0,780 H 1096 V 0 H 0 Z" />
    </clipPath>
    <clipPath
       id="clipPath4544"
       clipPathUnits="userSpaceOnUse">
      <path
         inkscape:connector-curvature="0"
         id="path4542"
         d="M 449.573,170.309 H 842.65 V 20.4689 H 449.573 Z" />
    </clipPath>
    <clipPath
       id="clipPath4548"
       clipPathUnits="userSpaceOnUse">
      <path
         inkscape:connector-curvature="0"
         id="path4546"
         d="M 449.573,170.309 H 842.65 V 20.4687 H 449.573 Z" />
    </clipPath>
    <mask
       id="mask4550"
       height="1"
       width="1"
       y="0"
       x="0"
       maskUnits="userSpaceOnUse">
      <g
         id="g4564">
        <g
           id="g4562"
           clip-path="url(#clipPath4544)">
          <path
             inkscape:connector-curvature="0"
             id="path4552"
             style="fill:#000000;fill-opacity:1;fill-rule:nonzero;stroke:none"
             d="M 449.573,170.309 H 842.651 V 20.469 H 449.573 Z" />
          <g
             id="g4560">
            <g
               id="g4554" />
            <g
               id="g4558">
              <g
                 id="g4556"
                 clip-path="url(#clipPath4548)" />
            </g>
          </g>
        </g>
      </g>
    </mask>
    <clipPath
       id="clipPath4572"
       clipPathUnits="userSpaceOnUse">
      <path
         inkscape:connector-curvature="0"
         id="path4570"
         d="M 449.573,170.309 H 842.65 V 20.4689 H 449.573 Z" />
    </clipPath>
    <clipPath
       id="clipPath4576"
       clipPathUnits="userSpaceOnUse">
      <path
         inkscape:connector-curvature="0"
         id="path4574"
         d="m 842.65,95.389 c 0,-41.377 -87.993,-74.92 -196.539,-74.92 -108.545,0 -196.538,33.543 -196.538,74.92 0,41.377 87.993,74.92 196.538,74.92 108.546,0 196.539,-33.543 196.539,-74.92" />
    </clipPath>
    <linearGradient
       id="linearGradient4590"
       spreadMethod="pad"
       gradientTransform="matrix(0,149.83974,239.67566,0,646.11145,20.468927)"
       gradientUnits="userSpaceOnUse"
       y2="0"
       x2="1"
       y1="0"
       x1="0">
      <stop
         id="stop4582"
         offset="0"
         style="stop-opacity:0;stop-color:#ffffff" />
      <stop
         id="stop4584"
         offset="0.397849"
         style="stop-opacity:0;stop-color:#ffffff" />
      <stop
         id="stop4586"
         offset="0.72377127"
         style="stop-opacity:0;stop-color:#ffffff" />
      <stop
         id="stop4588"
         offset="1"
         style="stop-opacity:1;stop-color:#ffffff" />
    </linearGradient>
    <mask
       id="mask4592"
       height="1"
       width="1"
       y="0"
       x="0"
       maskUnits="userSpaceOnUse">
      <g
         id="g4602">
        <g
           id="g4600">
          <g
             id="g4598">
            <g
               id="g4596">
              <path
                 inkscape:connector-curvature="0"
                 id="path4594"
                 style="fill:url(#linearGradient4590);stroke:none"
                 d="M -32768,32767 H 32767 V -32768 H -32768 Z" />
            </g>
          </g>
        </g>
      </g>
    </mask>
    <linearGradient
       id="linearGradient4612"
       spreadMethod="pad"
       gradientTransform="matrix(0,149.83974,239.67566,0,646.11145,20.468927)"
       gradientUnits="userSpaceOnUse"
       y2="0"
       x2="1"
       y1="0"
       x1="0">
      <stop
         id="stop4604"
         offset="0"
         style="stop-opacity:1;stop-color:#f4eb30" />
      <stop
         id="stop4606"
         offset="0.397849"
         style="stop-opacity:1;stop-color:#f3e630" />
      <stop
         id="stop4608"
         offset="0.72377127"
         style="stop-opacity:1;stop-color:#f3e630" />
      <stop
         id="stop4610"
         offset="1"
         style="stop-opacity:1;stop-color:#faac1a" />
    </linearGradient>
    <radialGradient
       id="radialGradient4684"
       spreadMethod="pad"
       gradientTransform="matrix(241.90192,0,0,-241.90192,640.71826,396.91675)"
       gradientUnits="userSpaceOnUse"
       r="1"
       cy="0"
       cx="0"
       fy="0"
       fx="0">
      <stop
         id="stop4676"
         offset="0"
         style="stop-opacity:1;stop-color:#f4eb30" />
      <stop
         id="stop4678"
         offset="0.564516"
         style="stop-opacity:1;stop-color:#f3e630" />
      <stop
         id="stop4680"
         offset="0.80619573"
         style="stop-opacity:1;stop-color:#f3e630" />
      <stop
         id="stop4682"
         offset="1"
         style="stop-opacity:1;stop-color:#faac1a" />
    </radialGradient>
    <clipPath
       id="clipPath4694"
       clipPathUnits="userSpaceOnUse">
      <path
         inkscape:connector-curvature="0"
         id="path4692"
         d="M 0,780 H 1096 V 0 H 0 Z" />
    </clipPath>
    <clipPath
       id="clipPath4702"
       clipPathUnits="userSpaceOnUse">
      <path
         inkscape:connector-curvature="0"
         id="path4700"
         d="M 398.816,635.408 H 882.62 V 386.131 H 398.816 Z" />
    </clipPath>
    <clipPath
       id="clipPath4734"
       clipPathUnits="userSpaceOnUse">
      <path
         inkscape:connector-curvature="0"
         id="path4732"
         d="m 471.48,502.761 c 0,-57.71 75.77,-104.494 169.238,-104.494 v 0 c 93.468,0 169.239,46.784 169.239,104.494 v 0 c 0,57.709 -75.771,104.493 -169.239,104.493 v 0 C 547.25,607.254 471.48,560.47 471.48,502.761" />
    </clipPath>
    <linearGradient
       id="linearGradient4748"
       spreadMethod="pad"
       gradientTransform="matrix(0,-208.98663,-208.98663,0,640.71826,607.25409)"
       gradientUnits="userSpaceOnUse"
       y2="0"
       x2="1"
       y1="0"
       x1="0">
      <stop
         id="stop4744"
         offset="0"
         style="stop-opacity:1;stop-color:#ffffff" />
      <stop
         id="stop4746"
         offset="1"
         style="stop-opacity:0;stop-color:#ffffff" />
    </linearGradient>
    <mask
       id="mask4750"
       height="1"
       width="1"
       y="0"
       x="0"
       maskUnits="userSpaceOnUse">
      <g
         id="g4760">
        <g
           id="g4758">
          <g
             id="g4756">
            <g
               id="g4754">
              <path
                 inkscape:connector-curvature="0"
                 id="path4752"
                 style="fill:url(#linearGradient4748);stroke:none"
                 d="M -32768,32767 H 32767 V -32768 H -32768 Z" />
            </g>
          </g>
        </g>
      </g>
    </mask>
    <linearGradient
       id="linearGradient4770"
       spreadMethod="pad"
       gradientTransform="matrix(0,-208.98663,-208.98663,0,640.71826,607.25409)"
       gradientUnits="userSpaceOnUse"
       y2="0"
       x2="1"
       y1="0"
       x1="0">
      <stop
         id="stop4766"
         offset="0"
         style="stop-opacity:1;stop-color:#ffffff" />
      <stop
         id="stop4768"
         offset="1"
         style="stop-opacity:1;stop-color:#ffffff" />
    </linearGradient>
    <clipPath
       id="clipPath4780"
       clipPathUnits="userSpaceOnUse">
      <path
         inkscape:connector-curvature="0"
         id="path4778"
         d="M 0,780 H 1096 V 0 H 0 Z" />
    </clipPath>
    <radialGradient
       id="radialGradient4826"
       spreadMethod="pad"
       gradientTransform="matrix(79.199669,0,0,-79.199669,377.94693,336.44333)"
       gradientUnits="userSpaceOnUse"
       r="1"
       cy="0"
       cx="0"
       fy="0"
       fx="0">
      <stop
         id="stop4818"
         offset="0"
         style="stop-opacity:1;stop-color:#f4eb30" />
      <stop
         id="stop4820"
         offset="0.564516"
         style="stop-opacity:1;stop-color:#f3e630" />
      <stop
         id="stop4822"
         offset="0.80619573"
         style="stop-opacity:1;stop-color:#f3e630" />
      <stop
         id="stop4824"
         offset="1"
         style="stop-opacity:1;stop-color:#faac1a" />
    </radialGradient>
    <clipPath
       id="clipPath4836"
       clipPathUnits="userSpaceOnUse">
      <path
         inkscape:connector-curvature="0"
         id="path4834"
         d="M 0,780 H 1096 V 0 H 0 Z" />
    </clipPath>
    <clipPath
       id="clipPath4844"
       clipPathUnits="userSpaceOnUse">
      <path
         inkscape:connector-curvature="0"
         id="path4842"
         d="m 298.747,414.526 h 158.4 v -81.614 h -158.4 z" />
    </clipPath>
    <clipPath
       id="clipPath4860"
       clipPathUnits="userSpaceOnUse">
      <path
         inkscape:connector-curvature="0"
         id="path4858"
         d="m 322.538,371.097 c 0,-18.895 24.807,-34.212 55.409,-34.212 v 0 c 30.602,0 55.409,15.317 55.409,34.212 v 0 c 0,18.895 -24.807,34.212 -55.409,34.212 v 0 c -30.602,0 -55.409,-15.317 -55.409,-34.212" />
    </clipPath>
    <linearGradient
       id="linearGradient4874"
       spreadMethod="pad"
       gradientTransform="matrix(0,-68.423073,-68.423073,0,377.94693,405.30862)"
       gradientUnits="userSpaceOnUse"
       y2="0"
       x2="1"
       y1="0"
       x1="0">
      <stop
         id="stop4870"
         offset="0"
         style="stop-opacity:1;stop-color:#ffffff" />
      <stop
         id="stop4872"
         offset="1"
         style="stop-opacity:0;stop-color:#ffffff" />
    </linearGradient>
    <mask
       id="mask4876"
       height="1"
       width="1"
       y="0"
       x="0"
       maskUnits="userSpaceOnUse">
      <g
         id="g4886">
        <g
           id="g4884">
          <g
             id="g4882">
            <g
               id="g4880">
              <path
                 inkscape:connector-curvature="0"
                 id="path4878"
                 style="fill:url(#linearGradient4874);stroke:none"
                 d="M -32768,32767 H 32767 V -32768 H -32768 Z" />
            </g>
          </g>
        </g>
      </g>
    </mask>
    <linearGradient
       id="linearGradient4896"
       spreadMethod="pad"
       gradientTransform="matrix(0,-68.423073,-68.423073,0,377.94693,405.30862)"
       gradientUnits="userSpaceOnUse"
       y2="0"
       x2="1"
       y1="0"
       x1="0">
      <stop
         id="stop4892"
         offset="0"
         style="stop-opacity:1;stop-color:#ffffff" />
      <stop
         id="stop4894"
         offset="1"
         style="stop-opacity:1;stop-color:#ffffff" />
    </linearGradient>
    <radialGradient
       id="radialGradient4920"
       spreadMethod="pad"
       gradientTransform="matrix(79.199669,0,0,-79.199669,903.48962,336.44333)"
       gradientUnits="userSpaceOnUse"
       r="1"
       cy="0"
       cx="0"
       fy="0"
       fx="0">
      <stop
         id="stop4912"
         offset="0"
         style="stop-opacity:1;stop-color:#f4eb30" />
      <stop
         id="stop4914"
         offset="0.564516"
         style="stop-opacity:1;stop-color:#f3e630" />
      <stop
         id="stop4916"
         offset="0.80619573"
         style="stop-opacity:1;stop-color:#f3e630" />
      <stop
         id="stop4918"
         offset="1"
         style="stop-opacity:1;stop-color:#faac1a" />
    </radialGradient>
    <clipPath
       id="clipPath4930"
       clipPathUnits="userSpaceOnUse">
      <path
         inkscape:connector-curvature="0"
         id="path4928"
         d="M 0,780 H 1096 V 0 H 0 Z" />
    </clipPath>
    <clipPath
       id="clipPath4938"
       clipPathUnits="userSpaceOnUse">
      <path
         inkscape:connector-curvature="0"
         id="path4936"
         d="M 824.29,414.526 H 982.689 V 332.912 H 824.29 Z" />
    </clipPath>
    <clipPath
       id="clipPath4954"
       clipPathUnits="userSpaceOnUse">
      <path
         inkscape:connector-curvature="0"
         id="path4952"
         d="m 848.08,371.097 c 0,-18.895 24.808,-34.212 55.409,-34.212 v 0 c 30.602,0 55.41,15.317 55.41,34.212 v 0 c 0,18.895 -24.808,34.212 -55.41,34.212 v 0 c -30.601,0 -55.409,-15.317 -55.409,-34.212" />
    </clipPath>
    <linearGradient
       id="linearGradient4968"
       spreadMethod="pad"
       gradientTransform="matrix(0,-68.423073,-68.423073,0,903.48962,405.30862)"
       gradientUnits="userSpaceOnUse"
       y2="0"
       x2="1"
       y1="0"
       x1="0">
      <stop
         id="stop4964"
         offset="0"
         style="stop-opacity:1;stop-color:#ffffff" />
      <stop
         id="stop4966"
         offset="1"
         style="stop-opacity:0;stop-color:#ffffff" />
    </linearGradient>
    <mask
       id="mask4970"
       height="1"
       width="1"
       y="0"
       x="0"
       maskUnits="userSpaceOnUse">
      <g
         id="g4980">
        <g
           id="g4978">
          <g
             id="g4976">
            <g
               id="g4974">
              <path
                 inkscape:connector-curvature="0"
                 id="path4972"
                 style="fill:url(#linearGradient4968);stroke:none"
                 d="M -32768,32767 H 32767 V -32768 H -32768 Z" />
            </g>
          </g>
        </g>
      </g>
    </mask>
    <linearGradient
       id="linearGradient4990"
       spreadMethod="pad"
       gradientTransform="matrix(0,-68.423073,-68.423073,0,903.48962,405.30862)"
       gradientUnits="userSpaceOnUse"
       y2="0"
       x2="1"
       y1="0"
       x1="0">
      <stop
         id="stop4986"
         offset="0"
         style="stop-opacity:1;stop-color:#ffffff" />
      <stop
         id="stop4988"
         offset="1"
         style="stop-opacity:1;stop-color:#ffffff" />
    </linearGradient>
    <clipPath
       id="clipPath5000"
       clipPathUnits="userSpaceOnUse">
      <path
         inkscape:connector-curvature="0"
         id="path4998"
         d="M 0,780 H 1096 V 0 H 0 Z" />
    </clipPath>
  </defs>
  <sodipodi:namedview
     id="base"
     pagecolor="#ffffff"
     bordercolor="#666666"
     borderopacity="1.0"
     inkscape:pageopacity="0.0"
     inkscape:pageshadow="2"
     inkscape:zoom="0.35"
     inkscape:cx="551.44677"
     inkscape:cy="484.13657"
     inkscape:document-units="mm"
     inkscape:current-layer="g4526"
     showgrid="false"
     fit-margin-top="0"
     fit-margin-left="0"
     fit-margin-right="0"
     fit-margin-bottom="0"
     inkscape:window-width="1920"
     inkscape:window-height="1017"
     inkscape:window-x="-8"
     inkscape:window-y="-8"
     inkscape:window-maximized="1" />
  <metadata
     id="metadata5">
    <rdf:RDF>
      <cc:Work
         rdf:about="">
        <dc:format>image/svg+xml</dc:format>
        <dc:type
           rdf:resource="http://purl.org/dc/dcmitype/StillImage" />
        <dc:title></dc:title>
      </cc:Work>
    </rdf:RDF>
  </metadata>
  <g
     inkscape:label="Calque 1"
     inkscape:groupmode="layer"
     id="layer1"
     transform="translate(105.60405,-23.435003)">
    <g
       transform="matrix(0.35277777,0,0,-0.35277777,-145.69722,284.14881)"
       inkscape:label="DD Cute Sorry Emoticon 65477"
       id="g4526">
      <g
         id="g4530">
        <g
           clip-path="url(#clipPath4536)"
           id="g4532">
          <g
             id="g4538">
            <g
               id="g4540" />
            <g
               mask="url(#mask4550)"
               id="g4566">
              <g
                 id="g4568" />
              <g
                 id="g4630">
                <g
                   id="g4628"
                   clip-path="url(#clipPath4572)">
                  <g
                     id="g4626">
                    <g
                       id="g4624"
                       clip-path="url(#clipPath4576)">
                      <g
                         id="g4622">
                        <g
                           id="g4614" />
                        <g
                           id="g4620"
                           mask="url(#mask4592)">
                          <g
                             id="g4618">
                            <path
                               inkscape:connector-curvature="0"
                               id="path4616"
                               style="fill:url(#linearGradient4612);stroke:none"
                               d="m 842.65,95.389 c 0,-41.377 -87.993,-74.92 -196.539,-74.92 -108.545,0 -196.538,33.543 -196.538,74.92 0,41.377 87.993,74.92 196.538,74.92 108.546,0 196.539,-33.543 196.539,-74.92" />
                          </g>
                        </g>
                      </g>
                    </g>
                  </g>
                </g>
              </g>
            </g>
          </g>
          <g
             transform="translate(386.4188,307.8563)"
             id="g4632">
            <path
               inkscape:connector-curvature="0"
               id="path4634"
               style="fill:#5e3a19;fill-opacity:1;fill-rule:nonzero;stroke:none"
               d="m 0,0 v 0 c -8.21,-2.911 -17.309,1.425 -20.22,9.636 l -139.918,394.672 c -2.911,8.21 1.425,17.309 9.636,20.22 v 0 c 8.21,2.911 17.309,-1.425 20.22,-9.636 L 9.636,20.22 C 12.546,12.01 8.21,2.911 0,0" />
          </g>
          <g
             transform="translate(420.9046,572.3856)"
             id="g4636">
            <path
               inkscape:connector-curvature="0"
               id="path4638"
               style="fill:#ffffff;fill-opacity:1;fill-rule:nonzero;stroke:none"
               d="m 0,0 -225.722,-80.022 c -15.552,-5.514 -32.787,2.699 -38.3,18.251 l -36.723,103.585 c -5.513,15.551 2.7,32.786 18.252,38.3 l 225.722,80.022 c 15.552,5.513 32.787,-2.7 38.3,-18.251 L 18.251,38.3 C 23.765,22.748 15.552,5.513 0,0" />
          </g>
          <g
             transform="translate(420.9046,572.3856)"
             id="g4640">
            <path
               inkscape:connector-curvature="0"
               id="path4642"
               style="fill:none;stroke:#603912;stroke-width:9.59899998;stroke-linecap:butt;stroke-linejoin:miter;stroke-miterlimit:10;stroke-dasharray:none;stroke-opacity:1"
               d="m 0,0 -225.722,-80.022 c -15.552,-5.514 -32.787,2.699 -38.3,18.251 l -36.723,103.585 c -5.513,15.551 2.7,32.786 18.252,38.3 l 225.722,80.022 c 15.552,5.513 32.787,-2.7 38.3,-18.251 L 18.251,38.3 C 23.765,22.748 15.552,5.513 0,0 Z" />
          </g>
          <g
             transform="translate(166.9928,553.2094)"
             id="g4644">
            <path
               inkscape:connector-curvature="0"
               id="path4646"
               style="fill:#5e3a19;fill-opacity:1;fill-rule:nonzero;stroke:none"
               d="M 0,0 C 0.882,0.507 1.821,0.88 2.816,1.115 3.813,1.351 4.8,1.458 5.777,1.442 6.751,1.423 7.686,1.252 8.579,0.929 c 4.91,-1.534 8.979,-2.232 12.211,-2.093 3.23,0.138 5.305,1.038 6.225,2.701 0.391,0.562 0.322,1.128 -0.206,1.695 -0.528,0.568 -1.363,1.112 -2.504,1.632 -1.142,0.52 -2.523,1.053 -4.145,1.601 -1.622,0.545 -3.328,1.112 -5.12,1.696 -1.792,0.582 -3.593,1.195 -5.402,1.836 -1.811,0.638 -3.5,1.349 -5.068,2.13 -1.68,0.805 -3.282,1.807 -4.805,3.007 -1.523,1.197 -2.865,2.609 -4.031,4.234 -1.165,1.624 -2.111,3.461 -2.839,5.51 -0.727,2.047 -1.152,4.288 -1.274,6.721 -0.2,2.035 -0.15,4.309 0.149,6.819 0.298,2.51 0.793,5.023 1.484,7.539 0.69,2.515 1.568,4.938 2.635,7.268 1.065,2.33 2.247,4.389 3.545,6.178 0.448,0.705 1.044,1.442 1.786,2.213 0.742,0.768 1.631,1.449 2.669,2.04 1.037,0.588 2.22,1.056 3.548,1.402 1.328,0.344 2.784,0.501 4.368,0.467 2.422,-0.191 4.907,-0.577 7.458,-1.158 2.551,-0.581 4.802,-1.445 6.754,-2.594 1.276,-0.692 2.334,-1.472 3.17,-2.34 0.836,-0.868 1.527,-1.768 2.071,-2.701 0.544,-0.935 0.979,-1.857 1.306,-2.77 0.327,-0.912 0.629,-1.787 0.905,-2.622 0.355,-1.553 0.661,-3.277 0.919,-5.17 0.258,-1.894 0.473,-3.817 0.645,-5.769 0.173,-1.953 0.274,-3.852 0.306,-5.696 0.03,-1.844 -0.01,-3.466 -0.125,-4.864 -0.153,-1.288 -0.49,-2.171 -1.012,-2.652 -0.523,-0.484 -1.411,-0.652 -2.664,-0.508 -7.313,0.555 -11.496,3.224 -12.55,8.01 -0.266,0.963 -0.476,2.115 -0.629,3.456 -0.155,1.34 -0.308,2.68 -0.462,4.021 -0.155,1.34 -0.325,2.613 -0.512,3.82 -0.189,1.204 -0.437,2.158 -0.747,2.859 -0.31,0.702 -0.673,1.045 -1.088,1.033 -0.416,-0.015 -0.952,-0.532 -1.612,-1.552 -0.59,-0.751 -1.193,-1.785 -1.807,-3.101 -0.615,-1.315 -1.147,-2.759 -1.599,-4.33 C 10.08,39.325 9.759,37.675 9.571,35.943 9.381,34.211 9.417,32.554 9.678,30.97 c 0.259,-1.584 0.771,-3.053 1.534,-4.41 0.762,-1.357 1.87,-2.413 3.326,-3.168 1.867,-1.054 3.86,-1.973 5.981,-2.758 2.119,-0.784 4.225,-1.527 6.318,-2.229 2.091,-0.7 4.085,-1.42 5.979,-2.154 1.894,-0.736 3.541,-1.6 4.943,-2.59 1.401,-0.991 2.467,-2.153 3.197,-3.49 C 41.683,8.834 41.937,7.233 41.714,5.367 41.628,4.04 41.38,2.566 40.97,0.948 c -0.409,-1.62 -1.134,-3.235 -2.176,-4.845 -1.041,-1.612 -2.45,-3.143 -4.225,-4.594 -1.776,-1.451 -4.072,-2.672 -6.89,-3.664 -3.747,-1.359 -7.697,-1.78 -11.85,-1.266 -4.154,0.516 -8.836,2.233 -14.044,5.152 -2.714,1.392 -4.284,2.576 -4.71,3.548 -0.349,1.058 -0.175,2.043 0.52,2.954 C -1.683,-1.097 -0.881,-0.508 0,0" />
          </g>
          <g
             transform="translate(223.6447,614.8405)"
             id="g4648">
            <path
               inkscape:connector-curvature="0"
               id="path4650"
               style="fill:#5e3a19;fill-opacity:1;fill-rule:nonzero;stroke:none"
               d="m 0,0 c -0.778,-1.773 -1.396,-4.032 -1.852,-6.78 -0.458,-2.747 -0.744,-5.733 -0.86,-8.954 -0.116,-3.225 -0.064,-6.284 0.157,-9.178 0.202,-2.84 0.627,-5.715 1.272,-8.623 0.646,-2.911 1.415,-5.562 2.31,-7.957 0.894,-2.394 1.911,-4.363 3.048,-5.903 1.139,-1.543 2.314,-2.329 3.531,-2.36 1.122,-0.063 2.079,0.531 2.872,1.783 0.793,1.249 1.429,2.976 1.91,5.174 0.48,2.199 0.759,4.809 0.837,7.834 0.075,3.025 -0.054,6.243 -0.394,9.656 -0.25,2.823 -0.706,5.872 -1.367,9.148 -0.661,3.274 -1.442,6.28 -2.343,9.011 C 8.201,-4.36 7.19,-2.051 6.088,-0.218 4.985,1.612 3.906,2.54 2.851,2.562 1.73,2.625 0.779,1.77 0,0 m 17.252,10.513 c 1.461,-1.651 2.787,-3.642 3.974,-5.969 1.864,-3.9 3.44,-8.28 4.729,-13.141 1.289,-4.862 2.154,-9.833 2.598,-14.91 0.444,-5.079 0.398,-10.025 -0.137,-14.838 -0.535,-4.814 -1.719,-9.132 -3.552,-12.951 -1.321,-2.354 -2.926,-4.166 -4.812,-5.437 -1.888,-1.272 -4.233,-2.184 -7.039,-2.739 -1.87,-0.369 -3.83,-0.628 -5.876,-0.78 -2.048,-0.149 -4.008,-0.008 -5.881,0.426 -1.533,0.359 -3.118,0.95 -4.752,1.771 -1.634,0.82 -3.063,1.895 -4.287,3.223 -1.981,2.191 -3.788,4.81 -5.422,7.858 -1.634,3.046 -3.016,6.362 -4.147,9.947 -1.129,3.583 -1.975,7.339 -2.537,11.267 -0.56,3.925 -0.783,7.857 -0.666,11.791 0.118,3.934 0.59,7.783 1.419,11.551 0.827,3.766 2.057,7.31 3.689,10.63 1.157,2.051 2.754,3.845 4.79,5.383 2.035,1.537 4.157,2.454 6.367,2.749 2.86,0.388 5.682,0.451 8.467,0.196 2.784,-0.256 5.228,-0.871 7.333,-1.847 2.366,-1.137 4.28,-2.53 5.742,-4.18" />
          </g>
          <g
             transform="translate(271.3753,617.4615)"
             id="g4652">
            <path
               inkscape:connector-curvature="0"
               id="path4654"
               style="fill:#5e3a19;fill-opacity:1;fill-rule:nonzero;stroke:none"
               d="m 0,0 c 0.358,-3.469 0.694,-7.192 1.01,-11.167 2.84,2.357 5.216,4.887 7.129,7.591 1.912,2.702 3.403,5.296 4.471,7.782 1.067,2.485 1.694,4.716 1.879,6.695 0.187,1.977 -0.018,3.394 -0.614,4.249 -1.083,1.374 -3.019,1.601 -5.808,0.681 C 6.695,15.378 5.248,14.684 3.721,13.748 2.194,12.811 0.686,11.509 -0.809,9.842 -0.628,6.748 -0.358,3.467 0,0 m 4.225,-37.004 c 0.486,-3.303 0.967,-6.545 1.44,-9.727 0.057,-0.97 -0.069,-1.66 -0.378,-2.073 -0.311,-0.411 -1.055,-0.656 -2.234,-0.736 -1.406,-0.03 -2.642,-0.098 -3.708,-0.204 -1.066,-0.104 -2.141,-0.026 -3.223,0.236 -1.099,0.317 -1.958,0.852 -2.575,1.607 -0.615,0.756 -1.115,1.873 -1.499,3.356 -0.292,1.202 -0.723,2.945 -1.294,5.23 -0.569,2.285 -1.201,4.875 -1.893,7.77 -0.692,2.893 -1.419,6.008 -2.179,9.343 -0.759,3.336 -1.495,6.68 -2.208,10.031 -0.712,3.351 -1.357,6.616 -1.934,9.796 -0.577,3.179 -1.03,6.06 -1.357,8.642 -0.328,2.581 -0.469,4.761 -0.426,6.537 0.044,1.776 0.307,2.961 0.793,3.554 2.416,2.528 4.972,5.071 7.666,7.631 2.695,2.558 5.485,4.668 8.37,6.331 2.885,1.661 5.799,2.685 8.739,3.068 2.941,0.382 5.846,-0.283 8.717,-1.993 2.355,-1.574 4.605,-3.35 6.752,-5.332 2.148,-1.982 4.179,-4.603 6.095,-7.868 1.847,-3.533 2.622,-6.678 2.326,-9.434 -0.386,-4.395 -1.948,-8.836 -4.687,-13.325 -2.739,-4.491 -6.296,-9.003 -10.671,-13.537 1.566,-1.092 3.265,-2.232 5.099,-3.419 1.833,-1.189 3.702,-2.365 5.606,-3.53 1.905,-1.166 3.78,-2.277 5.624,-3.339 1.844,-1.061 3.541,-1.955 5.091,-2.679 1.258,-0.637 1.932,-1.249 2.021,-1.837 0.089,-0.591 -0.119,-1.307 -0.626,-2.155 -0.593,-1.063 -1.163,-1.76 -1.708,-2.093 -0.545,-0.335 -1.215,-0.727 -2.011,-1.175 -0.929,-0.677 -2.045,-1.151 -3.343,-1.427 -1.299,-0.274 -2.969,-0.098 -5.01,0.527 -1.381,0.533 -3.002,1.236 -4.862,2.107 -1.86,0.87 -3.813,1.863 -5.859,2.982 -2.047,1.117 -4.116,2.306 -6.209,3.563 -2.092,1.258 -4.047,2.575 -5.865,3.955 0.46,-3.621 0.933,-7.082 1.42,-10.383" />
          </g>
          <g
             transform="translate(322.9312,634.4683)"
             id="g4656">
            <path
               inkscape:connector-curvature="0"
               id="path4658"
               style="fill:#5e3a19;fill-opacity:1;fill-rule:nonzero;stroke:none"
               d="m 0,0 c 0.358,-3.469 0.694,-7.191 1.01,-11.167 2.84,2.357 5.216,4.887 7.129,7.592 1.912,2.702 3.403,5.295 4.471,7.781 1.067,2.486 1.694,4.716 1.88,6.695 0.186,1.978 -0.019,3.394 -0.615,4.25 -1.082,1.372 -3.019,1.6 -5.807,0.68 C 6.696,15.378 5.248,14.684 3.721,13.748 2.195,12.811 0.686,11.509 -0.809,9.842 -0.627,6.749 -0.357,3.467 0,0 m 4.225,-37.004 c 0.487,-3.303 0.967,-6.545 1.44,-9.727 0.057,-0.97 -0.069,-1.66 -0.378,-2.072 -0.311,-0.412 -1.055,-0.657 -2.234,-0.737 -1.406,-0.03 -2.642,-0.097 -3.707,-0.203 -1.067,-0.105 -2.142,-0.027 -3.223,0.235 -1.1,0.317 -1.959,0.852 -2.575,1.608 -0.616,0.756 -1.116,1.873 -1.5,3.356 -0.291,1.201 -0.723,2.944 -1.293,5.23 -0.57,2.284 -1.201,4.874 -1.894,7.769 -0.692,2.893 -1.419,6.008 -2.179,9.344 -0.759,3.335 -1.495,6.679 -2.208,10.03 -0.712,3.35 -1.356,6.616 -1.933,9.797 -0.578,3.179 -1.03,6.059 -1.357,8.641 -0.329,2.582 -0.47,4.761 -0.427,6.538 0.044,1.776 0.308,2.96 0.794,3.553 2.415,2.528 4.971,5.071 7.666,7.631 2.694,2.558 5.484,4.668 8.37,6.332 2.884,1.661 5.798,2.684 8.738,3.068 2.941,0.381 5.846,-0.283 8.718,-1.994 2.354,-1.574 4.605,-3.35 6.752,-5.332 2.147,-1.981 4.178,-4.603 6.094,-7.868 1.847,-3.533 2.622,-6.678 2.326,-9.434 C 29.83,4.367 28.267,-0.075 25.528,-4.564 22.79,-9.055 19.232,-13.566 14.857,-18.1 c 1.566,-1.093 3.265,-2.233 5.099,-3.419 1.834,-1.19 3.702,-2.366 5.606,-3.53 1.905,-1.166 3.78,-2.278 5.624,-3.34 1.844,-1.06 3.541,-1.954 5.091,-2.679 1.258,-0.637 1.932,-1.249 2.021,-1.837 0.089,-0.591 -0.118,-1.307 -0.626,-2.155 -0.593,-1.063 -1.163,-1.76 -1.707,-2.093 -0.546,-0.335 -1.216,-0.727 -2.012,-1.175 -0.929,-0.677 -2.045,-1.151 -3.343,-1.427 -1.299,-0.273 -2.968,-0.097 -5.009,0.528 -1.382,0.532 -3.003,1.235 -4.863,2.106 -1.86,0.87 -3.813,1.863 -5.859,2.983 -2.047,1.116 -4.116,2.305 -6.209,3.563 -2.092,1.257 -4.047,2.574 -5.864,3.954 0.459,-3.621 0.933,-7.081 1.419,-10.383" />
          </g>
          <g
             transform="translate(395.896,666.7922)"
             id="g4660">
            <path
               inkscape:connector-curvature="0"
               id="path4662"
               style="fill:#5e3a19;fill-opacity:1;fill-rule:nonzero;stroke:none"
               d="m 0,0 c -0.554,-3.647 -1.225,-7.609 -2.015,-11.887 -0.79,-4.281 -1.662,-8.71 -2.615,-13.291 -0.953,-4.581 -1.89,-8.971 -2.811,-13.17 0.428,-4.001 0.889,-7.699 1.379,-11.092 0.49,-3.394 0.972,-6.682 1.445,-9.865 0.131,-1.193 0.022,-1.971 -0.33,-2.335 -0.353,-0.362 -1.199,-0.581 -2.538,-0.651 -1.245,-0.04 -2.561,-0.025 -3.945,0.043 -1.387,0.068 -2.682,0.182 -3.888,0.341 -1.297,0.437 -2.237,0.977 -2.815,1.621 -0.579,0.644 -1.061,1.705 -1.445,3.188 -0.46,2.505 -1.067,5.382 -1.823,8.626 -0.755,3.244 -1.484,6.884 -2.187,10.919 -2.096,3.018 -4.327,6.208 -6.695,9.57 -2.366,3.36 -4.739,6.737 -7.115,10.127 -2.376,3.39 -4.69,6.708 -6.94,9.954 -2.25,3.246 -4.316,6.289 -6.197,9.131 -1.017,1.335 -1.482,2.309 -1.397,2.925 0.086,0.615 0.697,1.265 1.833,1.95 1.429,0.594 2.804,1.157 4.123,1.685 1.32,0.528 2.754,0.83 4.301,0.907 1.547,0.078 2.782,-0.21 3.706,-0.864 0.924,-0.654 2.057,-1.748 3.403,-3.282 2.19,-2.988 4.585,-6.434 7.183,-10.338 2.599,-3.904 5.328,-8.043 8.186,-12.417 0.971,5.638 1.858,11.372 2.661,17.202 0.802,5.829 1.578,11.742 2.326,17.74 -0.034,1.534 0.406,2.499 1.325,2.895 0.918,0.394 2.026,0.45 3.325,0.17 1.299,-0.284 2.656,-0.78 4.069,-1.488 1.413,-0.709 2.636,-1.357 3.668,-1.943 0.629,-0.473 1.147,-0.936 1.559,-1.387 C 0.147,14.532 0.456,14.03 0.664,13.482 0.872,12.931 0.986,12.304 1.009,11.601 1.031,10.897 1.023,10.044 0.987,9.044 0.882,6.659 0.554,3.645 0,0" />
          </g>
        </g>
      </g>
      <g
         id="g4664">
        <g
           id="g4666">
          <g
             id="g4672">
            <g
               id="g4674">
              <path
                 inkscape:connector-curvature="0"
                 id="path4686"
                 style="fill:url(#radialGradient4684);stroke:none"
                 d="m 398.816,396.917 c 0,-133.599 108.303,-241.902 241.902,-241.902 v 0 c 133.599,0 241.902,108.303 241.902,241.902 v 0 c 0,133.599 -108.303,241.901 -241.902,241.901 v 0 c -133.599,0 -241.902,-108.302 -241.902,-241.901" />
            </g>
          </g>
        </g>
      </g>
      <g
         id="g4688">
        <g
           clip-path="url(#clipPath4694)"
           id="g4690">
          <g
             id="g4696">
            <g
               id="g4698" />
            <g
               id="g4710">
              <g
                 style="opacity:0.25999505"
                 id="g4708"
                 clip-path="url(#clipPath4702)">
                <g
                   id="g4706"
                   transform="translate(640.7183,620.6576)">
                  <path
                     inkscape:connector-curvature="0"
                     id="path4704"
                     style="fill:#ffffff;fill-opacity:1;fill-rule:nonzero;stroke:none"
                     d="m 0,0 c 131.131,0 237.88,-104.341 241.78,-234.527 0.073,2.45 0.122,4.907 0.122,7.375 C 241.902,-93.553 133.599,14.75 0,14.75 c -133.599,0 -241.902,-108.303 -241.902,-241.902 0,-2.468 0.049,-4.925 0.122,-7.375 C -237.88,-104.341 -131.131,0 0,0" />
                </g>
              </g>
            </g>
          </g>
          <g
             transform="translate(589.8708,437.9185)"
             id="g4712">
            <path
               inkscape:connector-curvature="0"
               id="path4714"
               style="fill:#ffffff;fill-opacity:1;fill-rule:nonzero;stroke:none"
               d="m 0,0 c 0,-22.827 -14.61,-41.332 -32.633,-41.332 -18.023,0 -32.634,18.505 -32.634,41.332 0,22.827 14.611,41.332 32.634,41.332 C -14.61,41.332 0,22.827 0,0" />
          </g>
          <g
             transform="translate(589.8708,447.5307)"
             id="g4716">
            <path
               inkscape:connector-curvature="0"
               id="path4718"
               style="fill:#5e3a19;fill-opacity:1;fill-rule:nonzero;stroke:none"
               d="m 0,0 c 0,-22.827 -14.61,-41.332 -32.633,-41.332 -18.023,0 -32.634,18.505 -32.634,41.332 0,22.827 14.611,41.332 32.634,41.332 C -14.61,41.332 0,22.827 0,0" />
          </g>
          <g
             transform="translate(756.8325,437.9185)"
             id="g4720">
            <path
               inkscape:connector-curvature="0"
               id="path4722"
               style="fill:#ffffff;fill-opacity:1;fill-rule:nonzero;stroke:none"
               d="m 0,0 c 0,-22.827 -14.61,-41.332 -32.633,-41.332 -18.023,0 -32.634,18.505 -32.634,41.332 0,22.827 14.611,41.332 32.634,41.332 C -14.61,41.332 0,22.827 0,0" />
          </g>
          <g
             transform="translate(756.8325,447.5307)"
             id="g4724">
            <path
               inkscape:connector-curvature="0"
               id="path4726"
               style="fill:#5e3a19;fill-opacity:1;fill-rule:nonzero;stroke:none"
               d="m 0,0 c 0,-22.827 -14.61,-41.332 -32.633,-41.332 -18.023,0 -32.634,18.505 -32.634,41.332 0,22.827 14.611,41.332 32.634,41.332 C -14.61,41.332 0,22.827 0,0" />
          </g>
        </g>
      </g>
      <g
         id="g4728">
        <g
           clip-path="url(#clipPath4734)"
           id="g4730">
          <g
             id="g4736">
            <g
               id="g4738" />
            <g
               mask="url(#mask4750)"
               id="g4762">
              <g
                 id="g4764">
                <path
                   inkscape:connector-curvature="0"
                   id="path4772"
                   style="fill:url(#linearGradient4770);stroke:none"
                   d="m 471.48,502.761 c 0,-57.71 75.77,-104.494 169.238,-104.494 v 0 c 93.468,0 169.239,46.784 169.239,104.494 v 0 c 0,57.709 -75.771,104.493 -169.239,104.493 v 0 C 547.25,607.254 471.48,560.47 471.48,502.761" />
              </g>
            </g>
          </g>
        </g>
      </g>
      <g
         id="g4774">
        <g
           clip-path="url(#clipPath4780)"
           id="g4776">
          <g
             transform="translate(513.5156,241.1832)"
             id="g4782">
            <path
               inkscape:connector-curvature="0"
               id="path4784"
               style="fill:#ffffff;fill-opacity:1;fill-rule:nonzero;stroke:none"
               d="m 0,0 c 30.184,36.744 75.938,60.21 127.203,60.21 51.264,0 97.018,-23.466 127.202,-60.21 h 11.173 C 236.28,45.421 185.273,75.521 127.203,75.521 69.133,75.521 18.125,45.421 -11.173,0 Z" />
          </g>
          <g
             transform="translate(513.5156,247.4396)"
             id="g4786">
            <path
               inkscape:connector-curvature="0"
               id="path4788"
               style="fill:#5e3a19;fill-opacity:1;fill-rule:nonzero;stroke:none"
               d="m 0,0 c 30.184,36.744 75.938,60.21 127.203,60.21 51.264,0 97.018,-23.466 127.202,-60.21 h 11.173 C 236.28,45.421 185.273,75.521 127.203,75.521 69.133,75.521 18.125,45.421 -11.173,0 Z" />
          </g>
          <g
             transform="translate(718.3094,507.526)"
             id="g4790">
            <path
               inkscape:connector-curvature="0"
               id="path4792"
               style="fill:#ffffff;fill-opacity:1;fill-rule:nonzero;stroke:none"
               d="m 0,0 c 12.674,2.403 26.282,-0.666 36.957,-9.58 10.675,-8.914 16.122,-21.756 16.018,-34.655 l 2.327,-1.943 C 57.099,-31.626 51.711,-16.489 39.619,-6.392 27.527,3.705 11.672,6.307 -2.327,1.943 Z" />
          </g>
          <g
             transform="translate(719.3973,508.8287)"
             id="g4794">
            <path
               inkscape:connector-curvature="0"
               id="path4796"
               style="fill:#5e3a19;fill-opacity:1;fill-rule:nonzero;stroke:none"
               d="m 0,0 c 12.674,2.403 26.282,-0.666 36.957,-9.58 10.675,-8.914 16.122,-21.756 16.018,-34.655 l 2.327,-1.943 C 57.099,-31.625 51.711,-16.489 39.619,-6.392 27.527,3.705 11.672,6.307 -2.327,1.943 Z" />
          </g>
          <g
             transform="translate(563.1271,507.526)"
             id="g4798">
            <path
               inkscape:connector-curvature="0"
               id="path4800"
               style="fill:#ffffff;fill-opacity:1;fill-rule:nonzero;stroke:none"
               d="m 0,0 c -12.674,2.403 -26.282,-0.666 -36.957,-9.58 -10.675,-8.914 -16.122,-21.756 -16.018,-34.655 l -2.327,-1.943 c -1.797,14.552 3.591,29.689 15.683,39.786 12.092,10.097 27.947,12.699 41.946,8.335 z" />
          </g>
          <g
             transform="translate(562.0393,508.8287)"
             id="g4802">
            <path
               inkscape:connector-curvature="0"
               id="path4804"
               style="fill:#5e3a19;fill-opacity:1;fill-rule:nonzero;stroke:none"
               d="m 0,0 c -12.674,2.403 -26.282,-0.666 -36.957,-9.58 -10.675,-8.914 -16.122,-21.756 -16.018,-34.655 l -2.327,-1.943 c -1.797,14.553 3.591,29.689 15.683,39.786 12.092,10.097 27.947,12.699 41.946,8.335 z" />
          </g>
        </g>
      </g>
      <g
         id="g4806">
        <g
           id="g4808">
          <g
             id="g4814">
            <g
               id="g4816">
              <path
                 inkscape:connector-curvature="0"
                 id="path4828"
                 style="fill:url(#radialGradient4826);stroke:none"
                 d="m 298.747,336.443 c 0,-43.741 35.459,-79.2 79.2,-79.2 v 0 c 43.741,0 79.2,35.459 79.2,79.2 v 0 c 0,43.741 -35.459,79.2 -79.2,79.2 v 0 c -43.741,0 -79.2,-35.459 -79.2,-79.2" />
            </g>
          </g>
        </g>
      </g>
      <g
         id="g4830">
        <g
           clip-path="url(#clipPath4836)"
           id="g4832">
          <g
             id="g4838">
            <g
               id="g4840" />
            <g
               id="g4852">
              <g
                 style="opacity:0.25999505"
                 id="g4850"
                 clip-path="url(#clipPath4844)">
                <g
                   id="g4848"
                   transform="translate(377.9469,409.697)">
                  <path
                     inkscape:connector-curvature="0"
                     id="path4846"
                     style="fill:#ffffff;fill-opacity:1;fill-rule:nonzero;stroke:none"
                     d="m 0,0 c 42.933,0 77.883,-34.162 79.16,-76.785 0.024,0.802 0.04,1.607 0.04,2.415 0,43.74 -35.459,79.199 -79.2,79.199 -43.741,0 -79.2,-35.459 -79.2,-79.199 0,-0.808 0.016,-1.613 0.04,-2.415 C -77.883,-34.162 -42.933,0 0,0" />
                </g>
              </g>
            </g>
          </g>
        </g>
      </g>
      <g
         id="g4854">
        <g
           clip-path="url(#clipPath4860)"
           id="g4856">
          <g
             id="g4862">
            <g
               id="g4864" />
            <g
               mask="url(#mask4876)"
               id="g4888">
              <g
                 id="g4890">
                <path
                   inkscape:connector-curvature="0"
                   id="path4898"
                   style="fill:url(#linearGradient4896);stroke:none"
                   d="m 322.538,371.097 c 0,-18.895 24.807,-34.212 55.409,-34.212 v 0 c 30.602,0 55.409,15.317 55.409,34.212 v 0 c 0,18.895 -24.807,34.212 -55.409,34.212 v 0 c -30.602,0 -55.409,-15.317 -55.409,-34.212" />
              </g>
            </g>
          </g>
        </g>
      </g>
      <g
         id="g4900">
        <g
           id="g4902">
          <g
             id="g4908">
            <g
               id="g4910">
              <path
                 inkscape:connector-curvature="0"
                 id="path4922"
                 style="fill:url(#radialGradient4920);stroke:none"
                 d="m 824.29,336.443 c 0,-43.741 35.458,-79.2 79.199,-79.2 v 0 c 43.741,0 79.2,35.459 79.2,79.2 v 0 c 0,43.741 -35.459,79.2 -79.2,79.2 v 0 c -43.741,0 -79.199,-35.459 -79.199,-79.2" />
            </g>
          </g>
        </g>
      </g>
      <g
         id="g4924">
        <g
           clip-path="url(#clipPath4930)"
           id="g4926">
          <g
             id="g4932">
            <g
               id="g4934" />
            <g
               id="g4946">
              <g
                 style="opacity:0.25999505"
                 id="g4944"
                 clip-path="url(#clipPath4938)">
                <g
                   id="g4942"
                   transform="translate(903.4896,409.697)">
                  <path
                     inkscape:connector-curvature="0"
                     id="path4940"
                     style="fill:#ffffff;fill-opacity:1;fill-rule:nonzero;stroke:none"
                     d="m 0,0 c 42.933,0 77.883,-34.162 79.16,-76.785 0.024,0.802 0.04,1.607 0.04,2.415 0,43.74 -35.459,79.199 -79.2,79.199 -43.741,0 -79.2,-35.459 -79.2,-79.199 0,-0.808 0.016,-1.613 0.04,-2.415 C -77.883,-34.162 -42.933,0 0,0" />
                </g>
              </g>
            </g>
          </g>
        </g>
      </g>
      <g
         id="g4948">
        <g
           clip-path="url(#clipPath4954)"
           id="g4950">
          <g
             id="g4956">
            <g
               id="g4958" />
            <g
               mask="url(#mask4970)"
               id="g4982">
              <g
                 id="g4984">
                <path
                   inkscape:connector-curvature="0"
                   id="path4992"
                   style="fill:url(#linearGradient4990);stroke:none"
                   d="m 848.08,371.097 c 0,-18.895 24.808,-34.212 55.409,-34.212 v 0 c 30.602,0 55.41,15.317 55.41,34.212 v 0 c 0,18.895 -24.808,34.212 -55.41,34.212 v 0 c -30.601,0 -55.409,-15.317 -55.409,-34.212" />
              </g>
            </g>
          </g>
        </g>
      </g>
    </g>
  </g>
</svg>
